<?xml version="1.0" standalone="no"?>
<!DOCTYPE svg PUBLIC "-//W3C//DTD SVG 20010904//EN"
 "http://www.w3.org/TR/2001/REC-SVG-20010904/DTD/svg10.dtd">
<svg version="1.0" xmlns="http://www.w3.org/2000/svg"
 width="750.000000pt" height="737.000000pt" viewBox="0 0 750.000000 737.000000"
 preserveAspectRatio="xMidYMid meet">
<metadata>
Created by potrace 1.16, written by Peter Selinger 2001-2019
</metadata>
<g transform="translate(0.000000,737.000000) scale(0.100000,-0.100000)"
fill="#000000" stroke="none">
<path d="M3184 6239 c-11 -4 -32 -19 -48 -33 -16 -14 -35 -26 -43 -26 -7 0
-13 -4 -13 -10 0 -5 -6 -10 -13 -10 -7 0 -17 -8 -23 -18 -6 -9 -38 -30 -70
-46 -55 -27 -69 -29 -208 -34 l-150 -5 -59 -43 c-33 -24 -64 -44 -71 -44 -6 0
-21 -22 -34 -48 l-22 -47 5 47 c4 39 2 46 -10 42 -8 -4 -15 -12 -15 -19 0 -7
-7 -18 -15 -25 -12 -10 -15 -10 -15 4 0 9 -7 16 -15 16 -10 0 -15 -10 -15 -28
0 -22 -10 -34 -51 -60 -27 -19 -53 -40 -56 -47 -2 -8 -19 -23 -37 -33 -55 -33
-156 -126 -156 -144 0 -5 -12 -22 -27 -37 -41 -40 -60 -66 -68 -92 -5 -16 2
-11 21 16 15 22 45 58 66 80 21 22 38 44 38 49 0 11 35 41 80 69 47 29 56 36
96 77 19 19 34 30 34 23 0 -6 -5 -15 -10 -18 -6 -4 -20 -28 -32 -53 -12 -26
-44 -69 -72 -97 -28 -27 -62 -65 -76 -82 -14 -18 -32 -34 -40 -35 -8 -2 -24
-16 -35 -32 -10 -16 -29 -41 -42 -54 -24 -26 -30 -52 -13 -52 25 0 6 -107 -30
-170 -8 -14 -17 -47 -21 -75 -6 -47 -41 -150 -54 -164 -4 -3 -12 2 -20 12 -12
16 -13 16 -18 -3 -3 -11 -1 -23 4 -26 9 -5 7 -29 -16 -179 -8 -49 -16 -119
-18 -155 l-5 -65 19 53 c10 29 16 59 13 66 -3 8 4 53 15 101 12 47 21 98 21
112 0 30 24 26 28 -5 2 -12 9 -22 16 -22 16 0 28 -76 20 -120 -4 -16 -13 -35
-20 -41 -8 -6 -14 -17 -14 -24 0 -7 -7 -18 -15 -25 -24 -20 -70 -179 -67 -233
l2 -48 -32 23 c-18 13 -34 26 -36 31 -2 4 -21 7 -42 7 -33 0 -41 -4 -54 -32
-18 -35 -21 -64 -7 -72 5 -3 12 -34 16 -68 6 -50 4 -64 -8 -73 -12 -9 -15 -31
-15 -103 1 -51 5 -92 9 -92 5 0 11 -22 15 -50 4 -27 10 -50 14 -50 4 0 10 -45
12 -101 3 -56 10 -104 15 -107 5 -4 13 -38 16 -76 4 -38 11 -72 15 -75 5 -3
12 -37 16 -76 4 -38 11 -72 15 -75 4 -3 11 -21 15 -41 4 -21 13 -42 21 -49 8
-7 15 -19 15 -26 0 -8 5 -14 11 -14 7 0 17 -6 23 -14 6 -8 32 -16 58 -19 43
-4 46 -3 35 14 -7 11 -23 19 -39 19 -33 0 -93 58 -102 98 -15 75 -32 138 -39
149 -9 14 -23 82 -38 178 -6 39 -13 77 -16 85 -3 8 -4 47 -3 87 1 41 -3 74 -9
78 -16 9 -14 161 3 198 25 56 26 116 5 179 -33 95 -17 130 40 83 21 -18 31
-36 31 -54 0 -15 4 -31 9 -37 5 -5 11 -18 14 -29 4 -15 5 -13 6 8 0 15 -3 27
-9 27 -13 0 -13 27 -1 35 6 3 24 -26 42 -65 18 -38 38 -70 45 -70 7 0 28 16
48 35 27 26 36 30 36 17 0 -9 -9 -28 -20 -42 -25 -32 -30 -141 -5 -120 8 7 15
27 15 45 0 20 9 43 26 61 38 44 50 81 56 170 3 44 13 94 21 110 8 16 17 45 21
65 6 34 63 109 83 109 8 0 83 103 83 115 0 3 -5 3 -12 -1 -8 -5 -9 2 -4 27 12
55 13 85 6 213 -7 129 -2 158 45 261 13 28 38 82 55 120 29 63 95 164 125 190
7 6 29 32 50 59 l39 48 81 -5 c44 -3 130 -11 190 -17 109 -11 200 -7 259 12
17 6 65 11 106 13 61 3 79 0 101 -16 15 -10 30 -19 34 -19 3 0 14 -8 23 -17
16 -16 16 -16 -2 -10 -14 6 -17 4 -12 -9 3 -8 6 -17 6 -20 0 -2 15 -1 33 2
l32 5 -22 -19 c-13 -11 -23 -23 -23 -26 0 -8 34 6 41 17 4 5 12 6 18 3 8 -5 6
-17 -4 -43 -18 -42 -18 -43 -5 -43 6 0 10 7 10 16 0 24 24 11 30 -17 l6 -24 6
24 c5 18 11 22 25 16 35 -15 83 -17 133 -5 51 12 52 12 108 -26 31 -22 64 -47
74 -56 10 -10 25 -18 33 -18 8 0 34 -11 59 -25 25 -14 51 -25 60 -25 8 0 20
-13 28 -30 18 -41 32 -38 25 6 l-6 35 20 -24 c10 -14 19 -35 19 -46 0 -12 4
-21 9 -21 5 0 12 -8 16 -18 3 -11 17 -24 31 -31 49 -22 94 -66 109 -106 18
-49 33 -192 24 -225 -13 -47 -10 -90 6 -90 11 0 15 11 15 39 0 22 4 52 10 66
5 14 13 58 16 96 5 44 11 68 18 66 6 -2 12 -13 14 -25 2 -14 11 -22 23 -22 10
0 46 -21 78 -46 59 -45 81 -84 63 -107 -6 -7 -13 -28 -17 -47 -4 -19 -11 -41
-15 -50 -4 -8 -14 -29 -21 -46 -8 -18 -35 -49 -60 -71 -25 -21 -43 -45 -41
-52 2 -7 -5 -15 -16 -18 -29 -7 -57 -52 -43 -66 19 -19 12 -28 -16 -21 -21 4
-24 3 -13 -5 12 -9 13 -14 3 -31 -17 -26 -16 -30 6 -30 22 0 61 -56 61 -87 0
-11 11 -37 25 -58 24 -35 25 -39 10 -55 -12 -13 -13 -20 -5 -25 7 -4 14 2 17
14 4 17 10 20 27 14 11 -4 41 -8 66 -8 27 1 51 -5 60 -14 13 -13 15 -12 18 7
5 35 21 26 43 -25 19 -45 20 -51 5 -98 -32 -106 -38 -133 -52 -245 -18 -134
-18 -134 -7 -180 8 -30 10 -23 15 57 4 50 11 101 17 112 6 11 11 39 11 63 0
41 0 42 16 20 8 -12 13 -25 11 -30 -3 -4 -6 -27 -8 -52 -2 -31 1 -44 9 -42 18
3 14 -17 -8 -45 -14 -19 -20 -41 -20 -80 0 -33 -5 -60 -14 -68 -7 -8 -19 -40
-25 -72 -16 -87 -28 -135 -40 -168 -6 -16 -18 -57 -27 -90 -19 -69 -54 -166
-66 -179 -4 -6 -8 -19 -8 -31 0 -12 -4 -25 -9 -31 -10 -9 -51 -113 -51 -126 0
-25 21 1 51 62 19 38 37 70 41 70 9 0 -9 -49 -25 -69 -10 -12 -9 -13 3 -6 8 4
25 17 38 29 22 20 23 20 16 1 -4 -11 -22 -33 -41 -49 -33 -28 -35 -46 -7 -46
8 0 12 4 9 10 -3 5 4 17 16 27 45 38 50 46 44 70 -6 26 13 93 27 93 4 0 8 8 8
19 0 10 6 24 14 30 7 6 16 28 20 49 3 20 13 46 22 57 15 19 16 18 10 -17 -4
-20 -13 -50 -21 -65 -8 -15 -15 -33 -15 -40 0 -6 -6 -18 -12 -25 -16 -18 -48
-77 -48 -89 0 -20 20 -8 26 16 3 14 10 25 14 25 5 0 11 13 15 29 3 16 13 35
21 42 8 6 14 20 14 30 0 11 5 19 10 19 6 0 10 6 10 13 1 6 9 30 20 52 11 22
19 46 20 53 0 6 5 12 10 12 6 0 10 11 10 26 0 33 38 116 50 109 6 -4 10 -1 10
4 0 6 -4 11 -10 11 -5 0 -10 7 -10 15 0 17 17 20 22 4 2 -6 3 8 3 31 0 29 6
45 17 51 10 5 15 16 12 23 -3 7 2 16 10 19 10 4 16 19 16 42 0 23 5 38 16 42
13 5 13 7 2 14 -8 5 -9 9 -2 9 7 0 15 15 18 34 4 19 12 36 19 39 16 5 11 155
-7 172 -19 19 -77 29 -86 15 -8 -13 -30 -6 -30 9 0 4 11 21 25 37 14 16 25 35
25 42 0 6 4 12 9 12 5 0 12 26 16 58 3 31 11 65 16 75 6 10 15 73 20 140 13
171 19 210 35 227 18 21 37 96 37 146 0 25 -13 67 -32 108 -18 36 -36 88 -41
114 -5 26 -14 67 -20 91 -6 24 -9 51 -7 60 3 10 5 8 6 -6 0 -13 6 -23 11 -23
14 0 12 23 -5 56 -8 16 -15 42 -15 59 0 63 -72 222 -106 235 -12 5 -27 17 -33
27 -9 16 -10 16 -11 -4 0 -13 5 -23 10 -23 25 0 92 -102 76 -117 -5 -4 -11 -1
-14 7 -2 8 -33 42 -68 76 -35 33 -64 68 -64 76 0 9 -14 29 -31 45 -18 15 -40
36 -51 46 -26 25 -81 47 -114 47 -28 0 -94 35 -94 51 0 12 0 12 50 -6 47 -17
116 -20 124 -6 3 5 -2 11 -12 13 -18 5 -48 51 -74 111 -7 15 -18 27 -25 27 -7
0 -13 7 -13 15 0 8 -7 15 -15 15 -8 0 -15 -5 -15 -10 0 -6 7 -13 15 -16 8 -4
15 -15 15 -25 0 -10 5 -19 10 -19 6 0 10 -7 10 -15 0 -8 -4 -15 -10 -15 -5 0
-10 4 -10 9 0 12 -69 81 -81 81 -5 0 -9 4 -9 8 0 5 -39 6 -87 4 -57 -2 -109 2
-148 11 -68 17 -78 15 110 22 92 3 145 12 145 24 0 4 -63 5 -140 3 -122 -4
-140 -3 -146 12 -5 13 -22 16 -88 16 -60 1 -76 3 -63 11 9 5 17 14 17 18 0 10
-101 31 -150 31 -21 0 -43 7 -50 15 -10 13 -9 15 9 15 34 0 24 23 -19 44 -34
16 -55 18 -152 14 -97 -4 -109 -3 -83 7 17 7 39 30 51 51 18 32 30 41 63 48
23 5 41 12 41 16 0 8 -88 23 -142 24 -22 0 -33 3 -25 8 6 4 29 8 50 8 23 0 36
4 32 10 -8 12 -72 13 -79 1 -3 -4 -24 -11 -47 -15 -23 -4 -53 -13 -68 -20 -14
-7 -44 -16 -66 -20 -38 -5 -37 -4 23 24 34 16 62 32 62 34 0 8 -59 12 -76 5z"/>
<path d="M2518 4399 c-27 -12 -48 -25 -48 -30 0 -5 -6 -9 -13 -9 -20 0 -107
-87 -107 -108 0 -10 6 -27 14 -37 13 -18 14 -18 50 3 21 12 46 22 56 22 10 0
21 4 24 9 11 16 201 -11 222 -32 4 -4 28 -8 53 -9 25 -1 -3 -4 -63 -7 -74 -4
-111 -10 -114 -18 -2 -7 -17 -13 -34 -13 -34 0 -104 -21 -192 -58 -53 -22 -63
-23 -114 -13 -71 14 -73 14 -66 -4 4 -8 16 -15 29 -15 35 0 95 -29 95 -45 0
-8 7 -15 16 -15 8 0 22 -7 30 -15 9 -8 24 -15 35 -15 10 0 19 -4 19 -9 0 -5 8
-12 18 -14 9 -3 2 -5 -16 -6 -22 -1 -32 -5 -30 -13 3 -9 42 -15 119 -21 213
-14 231 -15 236 -21 10 -10 -50 -27 -105 -31 -29 -1 -56 -6 -59 -9 -10 -10
180 -7 236 4 57 11 91 1 91 -25 0 -20 50 -19 94 1 19 10 43 33 56 55 13 24 29
39 41 39 10 0 19 -4 19 -10 0 -5 7 -10 15 -10 8 0 15 8 15 18 0 11 13 46 30
79 25 49 39 65 80 87 61 33 64 47 8 35 -27 -7 -45 -6 -52 1 -5 5 -16 10 -24
10 -38 0 -70 84 -54 142 8 30 7 36 -4 31 -8 -3 -14 -9 -14 -13 0 -21 -34 -18
-61 5 -36 29 -78 41 -182 49 -42 4 -97 15 -121 26 -25 10 -75 21 -113 25 -57
4 -76 2 -115 -16z m332 -333 c0 -23 -47 -68 -88 -85 -47 -19 -283 -22 -289 -4
-3 7 10 13 33 15 44 4 60 28 18 28 -27 0 -27 1 -8 15 31 24 74 18 244 -31 9
-3 30 13 50 36 40 45 40 45 40 26z"/>
<path d="M1740 4223 c0 -33 -7 -84 -16 -114 -30 -99 -13 -332 32 -452 8 -20
14 -54 14 -75 0 -20 9 -62 20 -92 17 -46 19 -49 15 -18 -5 31 -3 37 10 32 8
-3 15 -10 15 -15 0 -5 7 -9 15 -9 9 0 18 -8 21 -17 3 -10 10 -27 15 -38 5 -11
10 -47 11 -79 2 -35 8 -61 15 -63 9 -3 10 4 4 25 -5 15 -12 80 -15 143 -8 131
-21 195 -47 225 -11 11 -19 24 -19 28 0 4 -9 19 -20 33 -26 33 -26 68 0 86 11
8 23 29 26 48 4 19 10 39 14 44 4 6 10 25 13 42 6 30 -7 67 -47 131 -15 24
-36 -8 -38 -57 -1 -36 -2 -39 -5 -13 -4 28 -6 30 -19 18 -8 -8 -14 -29 -14
-47 0 -22 -3 -30 -10 -23 -11 11 2 101 26 172 18 55 18 110 -1 128 -13 14 -15
9 -15 -43z"/>
<path d="M3717 4204 c-3 -3 -19 -7 -35 -9 -17 -1 -50 -14 -75 -28 -55 -32 -71
-33 -104 -7 -36 28 -43 25 -42 -17 1 -58 -20 -170 -42 -227 -22 -55 -61 -244
-54 -256 2 -4 0 -34 -6 -66 -18 -103 -18 -108 0 -140 11 -17 22 -47 26 -65 4
-19 12 -37 17 -40 18 -11 13 -102 -7 -134 -25 -41 -122 -131 -157 -146 -48
-20 -135 3 -176 46 -18 19 -54 46 -81 61 -44 25 -68 55 -85 107 -5 17 -26 24
-26 9 0 -28 33 -111 52 -132 30 -32 80 -107 94 -140 43 -102 72 -133 154 -165
35 -14 69 -25 76 -25 6 0 14 -9 17 -20 4 -16 0 -20 -19 -20 -16 0 -28 -8 -35
-24 -11 -23 -12 -24 -48 -9 -20 9 -58 19 -86 23 -27 5 -68 14 -90 20 -22 6
-75 15 -117 19 -62 6 -84 14 -114 36 -20 15 -39 36 -41 45 -5 18 -51 35 -119
44 -39 6 -42 4 -55 -27 l-14 -32 -5 40 c-7 51 7 101 39 145 14 19 90 98 168
175 79 78 143 145 143 151 0 6 9 20 20 32 29 31 3 29 -41 -4 -19 -14 -61 -39
-94 -55 -80 -39 -94 -48 -130 -88 -16 -19 -42 -45 -57 -59 -15 -14 -37 -45
-49 -69 -11 -23 -24 -43 -27 -43 -4 0 -13 -4 -21 -9 -12 -8 -12 -12 -2 -25 10
-11 10 -24 3 -48 -16 -51 -8 -165 18 -245 25 -80 40 -93 40 -35 l0 37 73 0
c56 -1 81 -6 115 -24 35 -19 56 -23 125 -22 91 1 210 -20 235 -42 20 -18 56
-25 187 -39 55 -7 102 -15 105 -19 3 -4 16 -9 30 -11 14 -3 -5 -4 -42 -4 -50
1 -71 -4 -85 -17 -11 -9 -27 -17 -36 -17 -25 0 -31 -21 -8 -27 21 -5 21 -6 -5
-19 -33 -18 -73 -17 -149 1 -80 20 -135 20 -135 0 0 -8 -9 -15 -19 -15 -11 0
-23 -5 -26 -10 -10 -17 37 -68 75 -81 19 -7 54 -22 77 -35 76 -40 141 -56 231
-57 48 -1 103 2 122 6 l36 7 -1 -42 c0 -24 -4 -50 -10 -58 -5 -8 -10 -28 -11
-45 -1 -16 -2 -36 -3 -42 -1 -7 -6 -13 -13 -13 -6 0 -19 -7 -28 -15 -10 -9
-39 -23 -66 -33 -27 -9 -63 -27 -81 -40 -17 -12 -36 -22 -43 -22 -6 0 -8 -4
-5 -10 9 -14 -5 -12 -37 4 -26 14 -121 25 -338 42 -79 6 -91 10 -170 56 -84
50 -159 119 -161 148 -1 8 0 25 1 38 1 16 -4 22 -19 22 -23 0 -32 23 -31 77 0
21 -3 58 -7 83 -7 36 -13 45 -33 50 -15 4 -25 13 -26 25 -2 55 -5 65 -18 65
-29 0 -39 -28 -29 -80 6 -28 7 -50 2 -50 -4 0 -10 -8 -12 -17 -3 -11 -6 -6 -7
12 l-2 30 -7 -29 c-3 -16 -10 -31 -16 -32 -9 -3 -55 83 -69 129 -3 9 -12 17
-21 17 -22 0 -35 42 -35 113 0 59 -1 61 -16 38 -13 -18 -14 -28 -5 -47 6 -14
11 -42 11 -62 0 -25 8 -45 23 -62 13 -14 29 -40 35 -58 6 -18 20 -45 32 -59
25 -33 26 -53 0 -53 -11 0 -20 4 -20 8 0 5 -25 30 -56 57 -43 36 -58 45 -64
34 -13 -19 -1 -69 26 -111 13 -21 24 -42 24 -48 0 -5 5 -10 10 -10 6 0 10 16
10 35 0 19 5 35 10 35 6 0 10 -5 10 -10 0 -6 27 -51 60 -100 33 -49 60 -94 60
-100 0 -5 5 -10 10 -10 6 0 10 -5 10 -11 0 -20 52 -132 77 -166 13 -17 23 -35
23 -38 0 -21 90 -93 130 -104 39 -12 186 -70 230 -91 8 -4 33 -16 55 -26 85
-38 105 -49 105 -60 0 -7 15 -21 33 -33 17 -11 38 -29 45 -40 7 -12 18 -21 26
-21 22 0 38 -24 24 -38 -9 -9 -7 -12 11 -12 21 0 23 -3 17 -31 -5 -27 -4 -30
14 -24 25 8 25 -5 0 -38 -11 -14 -20 -32 -20 -41 0 -9 -4 -16 -9 -16 -5 0 -12
-12 -15 -26 -9 -34 -35 -74 -50 -74 -15 0 -67 -46 -60 -53 4 -3 -26 -38 -65
-78 -39 -39 -68 -75 -65 -80 3 -5 -2 -18 -10 -30 -8 -12 -12 -28 -9 -36 8 -21
-88 -83 -129 -83 -10 0 -18 -3 -18 -8 0 -4 -10 -12 -22 -17 -12 -6 -26 -19
-32 -30 -6 -11 -13 -22 -16 -25 -23 -21 -47 -189 -32 -228 6 -15 13 -39 16
-54 7 -33 29 -36 48 -9 8 11 26 25 41 32 15 7 27 16 27 21 0 4 6 8 13 8 6 0
23 9 37 20 14 11 40 20 58 20 33 0 79 16 132 45 14 8 41 22 60 32 19 9 44 25
54 35 25 23 55 25 36 3 -8 -10 -13 -52 -14 -121 -1 -100 0 -105 19 -100 11 3
23 6 28 6 4 0 7 9 7 20 0 18 7 20 75 20 43 0 75 4 75 10 0 6 -8 10 -17 11 -14
0 -15 2 -3 6 29 11 50 36 50 60 0 13 7 26 15 29 8 4 15 11 15 18 0 17 16 37
31 40 31 5 64 19 71 29 11 18 61 -5 76 -36 12 -26 16 -27 82 -24 47 1 70 6 70
14 0 7 9 17 19 23 11 5 21 22 23 37 3 23 10 14 46 -58 61 -122 59 -135 -43
-289 -56 -85 -89 -119 -160 -164 -91 -59 -168 -81 -275 -80 -97 1 -171 18
-305 70 -33 13 -72 26 -87 30 -16 3 -28 10 -28 15 0 5 -6 9 -13 9 -19 0 -267
128 -307 159 -19 15 -52 38 -72 50 -21 12 -38 27 -38 32 0 5 -6 9 -13 9 -28 0
-291 251 -432 414 -97 111 -143 163 -155 176 -8 9 -33 38 -55 64 -22 26 -48
56 -57 67 -10 10 -18 21 -18 23 0 3 -11 17 -24 31 -20 22 -68 94 -121 183 -47
79 -90 132 -107 132 -11 0 -16 5 -13 10 3 5 2 10 -4 10 -5 0 -12 -4 -15 -9 -3
-5 -22 -12 -41 -15 -19 -4 -35 -11 -35 -16 0 -4 -34 -11 -75 -15 -41 -4 -75
-11 -75 -15 0 -5 -15 -12 -33 -15 -17 -4 -35 -12 -38 -18 -4 -5 -39 -12 -78
-15 -39 -2 -71 -8 -71 -12 0 -4 -19 -10 -41 -13 -23 -3 -45 -11 -49 -17 -4 -6
-39 -14 -78 -17 -40 -3 -72 -9 -72 -14 0 -4 -26 -10 -58 -14 -31 -3 -66 -10
-77 -15 -11 -5 -51 -11 -89 -14 -38 -3 -72 -9 -75 -14 -3 -5 -44 -12 -90 -15
-47 -4 -87 -11 -90 -15 -3 -5 -46 -12 -96 -16 -50 -3 -91 -11 -93 -16 -2 -6
-12 -10 -23 -10 -19 0 -19 -17 -19 -715 l0 -715 2740 0 c1507 0 2740 2 2740 5
0 2 -20 38 -45 78 -25 41 -45 78 -45 81 0 4 -5 12 -11 19 -5 7 -27 39 -49 72
-21 33 -57 80 -79 105 -22 25 -41 48 -41 53 0 4 -7 7 -15 7 -7 0 -18 6 -22 13
-4 8 -24 24 -43 38 -19 13 -50 36 -68 51 -18 16 -39 28 -47 28 -7 0 -15 4 -17
8 -1 5 -37 26 -78 48 -41 21 -76 42 -78 46 -2 5 -10 8 -18 8 -8 0 -22 9 -31
20 -10 11 -23 20 -30 20 -7 0 -13 5 -13 10 0 6 -10 10 -22 10 -13 1 -41 9 -63
20 -22 11 -47 19 -56 20 -9 0 -18 3 -22 6 -11 11 -141 53 -166 54 -21 0 -22
-2 -10 -17 26 -30 -87 -10 -171 32 -108 52 -167 74 -190 68 -14 -4 -22 1 -29
18 -14 38 -80 93 -121 104 -46 11 -109 63 -94 77 3 3 -4 8 -16 11 -11 3 -20 2
-20 -3 0 -4 -8 -10 -17 -14 -10 -3 -47 -22 -83 -41 -36 -19 -66 -35 -67 -35
-2 0 -3 8 -3 18 0 14 -2 15 -10 2 -19 -30 -33 9 -41 113 -5 76 -13 114 -29
146 -19 36 -22 52 -17 107 9 90 59 283 83 318 7 11 21 44 30 74 10 29 24 57
33 60 24 9 40 34 41 64 0 14 12 40 26 57 14 17 29 45 34 62 9 31 9 31 -10 14
-11 -10 -20 -24 -20 -30 0 -7 -7 -15 -15 -19 -10 -4 -15 1 -15 14 0 11 -7 20
-15 20 -8 0 -15 -4 -15 -9 0 -5 -8 -12 -18 -15 -9 -3 -32 -19 -50 -35 -17 -16
-42 -32 -54 -35 -13 -3 -17 -3 -10 0 6 3 12 10 12 15 0 13 27 38 116 107 81
62 124 103 124 118 0 5 14 25 31 44 17 19 38 49 46 65 9 17 28 46 43 65 29 38
46 68 82 145 13 28 26 52 31 53 4 2 7 9 7 16 0 8 9 25 20 39 11 14 20 39 20
57 0 30 11 58 69 180 14 31 45 73 68 94 32 28 48 53 60 95 19 61 47 110 57
100 4 -3 3 -17 -2 -30 -5 -13 -12 -42 -16 -64 l-6 -40 15 27 c28 50 78 182 87
228 4 25 12 64 17 88 5 24 5 45 0 48 -5 3 -5 13 0 23 32 59 28 551 -4 551 -8
0 -17 29 -24 75 -14 93 -14 125 -1 125 6 0 10 10 10 23 l0 22 -18 -21 c-22
-27 -42 -34 -66 -22 -11 6 -22 6 -28 0 -6 -6 2 -13 22 -20 18 -7 29 -16 25
-22 -9 -15 -45 -2 -78 28 -27 26 -33 27 -235 39 -247 14 -287 15 -295 7z m97
-501 c4 -4 44 -15 89 -25 45 -10 102 -23 127 -28 82 -19 72 -32 -19 -24 -64 5
-82 4 -77 -5 4 -6 16 -9 25 -6 10 3 31 -1 47 -10 16 -8 37 -15 47 -15 24 0 21
-19 -5 -31 -18 -7 -12 -8 26 -4 27 3 55 10 62 16 7 6 38 13 70 16 51 5 57 4
51 -10 -4 -10 -2 -17 3 -17 6 0 7 -31 4 -77 -5 -66 -10 -81 -30 -98 -13 -12
-24 -26 -24 -33 0 -7 -9 -21 -19 -31 -17 -17 -18 -26 -10 -53 5 -18 8 -42 8
-53 -1 -13 -4 -10 -9 10 -7 28 -8 28 -9 -12 0 -23 -5 -45 -11 -48 -5 -3 -10
-16 -10 -28 0 -12 -9 -28 -20 -35 l-21 -13 21 40 c21 41 25 68 14 95 -8 21
-24 10 -24 -16 0 -16 -18 -57 -38 -88 -2 -3 -10 4 -19 15 -15 20 -15 20 -8 -2
9 -32 -11 -63 -40 -63 -14 0 -25 -6 -25 -14 0 -7 -21 -20 -47 -28 -41 -14 -50
-14 -64 -2 -8 8 -19 14 -22 14 -11 0 -47 39 -47 50 0 6 -4 10 -10 10 -12 0
-50 37 -50 48 0 5 -12 15 -26 23 -14 7 -30 23 -35 34 -5 11 -18 34 -29 50 -10
17 -30 53 -44 82 -15 28 -31 55 -36 58 -6 3 -10 28 -10 55 0 46 2 51 33 66 39
20 110 75 104 81 -3 2 -34 -12 -71 -32 -50 -27 -66 -32 -66 -20 0 8 4 15 8 15
5 0 22 13 38 30 16 16 34 30 40 30 5 0 27 16 48 35 21 19 44 35 52 35 7 0 16
5 19 10 7 12 28 13 39 3z m116 -938 c0 -36 -65 -196 -82 -203 -5 -2 -8 -9 -8
-15 0 -13 -108 -131 -125 -138 -31 -12 -145 -96 -145 -106 0 -7 -4 -13 -9 -13
-5 0 -17 -3 -26 -7 -15 -5 -16 -3 -6 16 7 12 33 43 58 69 24 26 59 65 76 87
17 22 62 73 99 113 37 40 77 94 90 120 12 26 31 59 41 75 19 27 37 28 37 2z"/>
</g>
</svg>
